G75*
%MOIN*%
%OFA0B0*%
%FSLAX25Y25*%
%IPPOS*%
%LPD*%
%AMOC8*
5,1,8,0,0,1.08239X$1,22.5*
%
%ADD10C,0.05950*%
%ADD11OC8,0.06000*%
%ADD12C,0.06000*%
%ADD13C,0.05162*%
%ADD14C,0.05918*%
%ADD15C,0.05524*%
%ADD16C,0.08674*%
%ADD17C,0.06800*%
%ADD18C,0.06737*%
%ADD19C,0.06000*%
%ADD20C,0.06300*%
%ADD21C,0.06400*%
%ADD22R,0.05950X0.05950*%
%ADD23C,0.11824*%
%ADD24C,0.03581*%
%ADD25C,0.07400*%
D10*
X0071465Y0095115D03*
X0071465Y0104957D03*
X0071465Y0114800D03*
X0084339Y0264721D03*
D11*
X0419124Y0256323D03*
X0419261Y0150642D03*
X0419561Y0045549D03*
D12*
X0419561Y0053549D03*
X0419261Y0158642D03*
X0419124Y0264323D03*
D13*
X0422795Y0284441D03*
X0414921Y0284441D03*
X0414921Y0292315D03*
X0422795Y0292315D03*
X0422795Y0300189D03*
X0414921Y0300189D03*
X0414921Y0308063D03*
X0414921Y0315937D03*
X0422795Y0315937D03*
X0422795Y0308063D03*
X0422795Y0323811D03*
X0414921Y0323811D03*
X0415221Y0218985D03*
X0423095Y0218985D03*
X0423095Y0211111D03*
X0415221Y0211111D03*
X0415221Y0203237D03*
X0423095Y0203237D03*
X0423095Y0195363D03*
X0415221Y0195363D03*
X0415221Y0187489D03*
X0423095Y0187489D03*
X0423095Y0179615D03*
X0415221Y0179615D03*
X0415221Y0113985D03*
X0423095Y0113985D03*
X0423095Y0106111D03*
X0415221Y0106111D03*
X0415221Y0098237D03*
X0423095Y0098237D03*
X0423095Y0090363D03*
X0415221Y0090363D03*
X0415221Y0082489D03*
X0423095Y0082489D03*
X0423095Y0074615D03*
X0415221Y0074615D03*
D14*
X0101150Y0341493D02*
X0101150Y0346611D01*
X0091308Y0346611D02*
X0091308Y0341493D01*
X0071623Y0341493D02*
X0071623Y0346611D01*
X0061780Y0346611D02*
X0061780Y0341493D01*
X0078906Y0363737D02*
X0084024Y0363737D01*
D15*
X0101150Y0363737D03*
X0101150Y0373579D03*
X0081465Y0344052D03*
X0061780Y0363737D03*
X0061780Y0373579D03*
D16*
X0084654Y0063737D02*
X0084654Y0055863D01*
X0092528Y0040902D02*
X0100402Y0040902D01*
X0108670Y0055863D02*
X0108670Y0063737D01*
D17*
X0109465Y0094800D02*
X0103465Y0094800D01*
X0103465Y0104800D02*
X0109465Y0104800D01*
X0109465Y0114800D02*
X0103465Y0114800D01*
D18*
X0166780Y0379800D03*
X0176623Y0379800D03*
X0186465Y0379800D03*
X0251780Y0379800D03*
X0261623Y0379800D03*
X0271465Y0379800D03*
X0321780Y0379800D03*
X0331623Y0379800D03*
X0341465Y0379800D03*
X0391780Y0379800D03*
X0401623Y0379800D03*
X0411465Y0379800D03*
D19*
X0364065Y0339800D02*
X0358865Y0339800D01*
X0358865Y0329800D02*
X0364065Y0329800D01*
X0364065Y0319800D02*
X0358865Y0319800D01*
X0358865Y0309800D02*
X0364065Y0309800D01*
X0364065Y0299800D02*
X0358865Y0299800D01*
X0358865Y0289800D02*
X0364065Y0289800D01*
X0364065Y0279800D02*
X0358865Y0279800D01*
X0358865Y0269800D02*
X0364065Y0269800D01*
X0364065Y0259800D02*
X0358865Y0259800D01*
X0334065Y0259800D02*
X0328865Y0259800D01*
X0328865Y0269800D02*
X0334065Y0269800D01*
X0334065Y0279800D02*
X0328865Y0279800D01*
X0328865Y0289800D02*
X0334065Y0289800D01*
X0334065Y0299800D02*
X0328865Y0299800D01*
X0328865Y0309800D02*
X0334065Y0309800D01*
X0334065Y0319800D02*
X0328865Y0319800D01*
X0328865Y0329800D02*
X0334065Y0329800D01*
X0334065Y0339800D02*
X0328865Y0339800D01*
X0306361Y0292711D02*
X0306361Y0287511D01*
X0306361Y0262711D02*
X0306361Y0257511D01*
X0328865Y0234800D02*
X0334065Y0234800D01*
X0334065Y0224800D02*
X0328865Y0224800D01*
X0328865Y0214800D02*
X0334065Y0214800D01*
X0334065Y0204800D02*
X0328865Y0204800D01*
X0328865Y0194800D02*
X0334065Y0194800D01*
X0334065Y0184800D02*
X0328865Y0184800D01*
X0328865Y0174800D02*
X0334065Y0174800D01*
X0334065Y0164800D02*
X0328865Y0164800D01*
X0328865Y0154800D02*
X0334065Y0154800D01*
X0358865Y0154800D02*
X0364065Y0154800D01*
X0364065Y0164800D02*
X0358865Y0164800D01*
X0358865Y0174800D02*
X0364065Y0174800D01*
X0364065Y0184800D02*
X0358865Y0184800D01*
X0358865Y0194800D02*
X0364065Y0194800D01*
X0364065Y0204800D02*
X0358865Y0204800D01*
X0358865Y0214800D02*
X0364065Y0214800D01*
X0364065Y0224800D02*
X0358865Y0224800D01*
X0358865Y0234800D02*
X0364065Y0234800D01*
X0305965Y0187400D02*
X0305965Y0182200D01*
X0305965Y0157400D02*
X0305965Y0152200D01*
X0328865Y0129800D02*
X0334065Y0129800D01*
X0334065Y0119800D02*
X0328865Y0119800D01*
X0328865Y0109800D02*
X0334065Y0109800D01*
X0334065Y0099800D02*
X0328865Y0099800D01*
X0328865Y0089800D02*
X0334065Y0089800D01*
X0334065Y0079800D02*
X0328865Y0079800D01*
X0328865Y0069800D02*
X0334065Y0069800D01*
X0334065Y0059800D02*
X0328865Y0059800D01*
X0328865Y0049800D02*
X0334065Y0049800D01*
X0358865Y0049800D02*
X0364065Y0049800D01*
X0364065Y0059800D02*
X0358865Y0059800D01*
X0358865Y0069800D02*
X0364065Y0069800D01*
X0364065Y0079800D02*
X0358865Y0079800D01*
X0358865Y0089800D02*
X0364065Y0089800D01*
X0364065Y0099800D02*
X0358865Y0099800D01*
X0358865Y0109800D02*
X0364065Y0109800D01*
X0364065Y0119800D02*
X0358865Y0119800D01*
X0358865Y0129800D02*
X0364065Y0129800D01*
X0308424Y0082571D02*
X0308424Y0077371D01*
X0308424Y0052571D02*
X0308424Y0047371D01*
D20*
X0123965Y0347700D03*
X0123965Y0357500D03*
X0123965Y0367300D03*
D21*
X0104265Y0209800D02*
X0098665Y0209800D01*
X0098665Y0199800D02*
X0104265Y0199800D01*
X0104265Y0189800D02*
X0098665Y0189800D01*
X0098665Y0179800D02*
X0104265Y0179800D01*
X0064265Y0179800D02*
X0058665Y0179800D01*
X0058665Y0189800D02*
X0064265Y0189800D01*
X0064265Y0199800D02*
X0058665Y0199800D01*
X0058665Y0209800D02*
X0064265Y0209800D01*
D22*
X0084339Y0254878D03*
D23*
X0037233Y0304950D03*
X0037233Y0100619D03*
X0458493Y0041170D03*
X0458493Y0364005D03*
D24*
X0374365Y0333300D03*
X0331465Y0349800D03*
X0306465Y0304800D03*
X0306465Y0299800D03*
X0321465Y0289800D03*
X0301665Y0279400D03*
X0301465Y0269800D03*
X0281465Y0259800D03*
X0331465Y0244800D03*
X0376465Y0227300D03*
X0314765Y0203100D03*
X0308965Y0196400D03*
X0313565Y0184700D03*
X0311465Y0174800D03*
X0311465Y0164800D03*
X0281465Y0154800D03*
X0231965Y0159300D03*
X0224465Y0152300D03*
X0207465Y0150800D03*
X0194965Y0151300D03*
X0178965Y0151300D03*
X0173465Y0159300D03*
X0170965Y0177800D03*
X0189965Y0213300D03*
X0186465Y0217300D03*
X0186465Y0230800D03*
X0192465Y0230800D03*
X0200965Y0231300D03*
X0212965Y0230300D03*
X0230965Y0206800D03*
X0217465Y0203800D03*
X0212465Y0203800D03*
X0237465Y0197300D03*
X0166465Y0239800D03*
X0140965Y0254300D03*
X0141465Y0269800D03*
X0160965Y0270300D03*
X0173465Y0266300D03*
X0180965Y0279300D03*
X0173965Y0287300D03*
X0191465Y0289800D03*
X0201465Y0283800D03*
X0203965Y0289800D03*
X0206465Y0274300D03*
X0196465Y0274800D03*
X0186465Y0304800D03*
X0140465Y0298800D03*
X0137965Y0316800D03*
X0155465Y0348800D03*
X0141465Y0369800D03*
X0091465Y0329800D03*
X0101465Y0314800D03*
X0066465Y0314800D03*
X0086465Y0244800D03*
X0117965Y0214800D03*
X0126465Y0214800D03*
X0112965Y0204800D03*
X0112965Y0192300D03*
X0112965Y0179800D03*
X0098965Y0164800D03*
X0081465Y0164800D03*
X0063965Y0164800D03*
X0093965Y0133800D03*
X0124965Y0133800D03*
X0176465Y0112100D03*
X0176465Y0106800D03*
X0176465Y0101800D03*
X0163465Y0087800D03*
X0145465Y0085800D03*
X0179965Y0121300D03*
X0189965Y0129300D03*
X0201465Y0124800D03*
X0216465Y0124800D03*
X0231965Y0109300D03*
X0213465Y0080800D03*
X0201465Y0079800D03*
X0193465Y0079800D03*
X0187465Y0079800D03*
X0187465Y0067800D03*
X0190465Y0062800D03*
X0216465Y0054800D03*
X0229965Y0056800D03*
X0245565Y0061000D03*
X0286465Y0049800D03*
X0306465Y0059800D03*
X0306465Y0069800D03*
X0315265Y0079900D03*
X0306465Y0089800D03*
X0306465Y0099800D03*
X0331465Y0139000D03*
X0377865Y0123400D03*
X0401465Y0054800D03*
X0146465Y0044800D03*
X0066465Y0082300D03*
D25*
X0131465Y0044800D03*
M02*
