%
M48
M72
T01C0.01181
T02C0.02362
T03C0.02756
T04C0.03150
T05C0.03200
T06C0.03500
T07C0.03600
T08C0.03937
T09C0.04000
T10C0.04724
T11C0.11024
%
T01
X66465Y82300
X93965Y133800
X124965Y133800
X98965Y164800
X81465Y164800
X63965Y164800
X112965Y179800
X112965Y192300
X112965Y204800
X117965Y214800
X126465Y214800
X166465Y239800
X186465Y230800
X192465Y230800
X200965Y231300
X212965Y230300
X189965Y213300
X186465Y217300
X212465Y203800
X217465Y203800
X230965Y206800
X237465Y197300
X231965Y159300
X224465Y152300
X207465Y150800
X194965Y151300
X178965Y151300
X173465Y159300
X170965Y177800
X189965Y129300
X201465Y124800
X216465Y124800
X231965Y109300
X213465Y80800
X201465Y79800
X193465Y79800
X187465Y79800
X187465Y67800
X190465Y62800
X216465Y54800
X229965Y56800
X245565Y61000
X286465Y49800
X306465Y59800
X306465Y69800
X315265Y79900
X306465Y89800
X306465Y99800
X331465Y139000
X311465Y164800
X311465Y174800
X313565Y184700
X308965Y196400
X314765Y203100
X331465Y244800
X301465Y269800
X301665Y279400
X321465Y289800
X306465Y299800
X306465Y304800
X331465Y349800
X374365Y333300
X281465Y259800
X206465Y274300
X196465Y274800
X201465Y283800
X203965Y289800
X191465Y289800
X180965Y279300
X173965Y287300
X160965Y270300
X173465Y266300
X141465Y269800
X140965Y254300
X140465Y298800
X137965Y316800
X155465Y348800
X141465Y369800
X91465Y329800
X101465Y314800
X66465Y314800
X86465Y244800
X186465Y304800
X281465Y154800
X377865Y123400
X401465Y54800
X376465Y227300
X179965Y121300
X176465Y112100
X176465Y106800
X176465Y101800
X163465Y87800
X145465Y85800
X146465Y44800
T02
X415221Y74615
X415221Y82489
X415221Y90363
X415221Y98237
X415221Y106111
X415221Y113985
X423095Y113985
X423095Y106111
X423095Y98237
X423095Y90363
X423095Y82489
X423095Y74615
X423095Y179615
X423095Y187489
X423095Y195363
X423095Y203237
X423095Y211111
X423095Y218985
X415221Y218985
X415221Y211111
X415221Y203237
X415221Y195363
X415221Y187489
X415221Y179615
X414921Y284441
X422795Y284441
X422795Y292315
X414921Y292315
X414921Y300189
X422795Y300189
X422795Y308063
X422795Y315937
X414921Y315937
X414921Y308063
X414921Y323811
X422795Y323811
T03
X101150Y344052
X91308Y344052
X71623Y344052
X61780Y344052
X81465Y363737
T04
X84339Y264721
X84339Y254878
X71465Y114800
X71465Y104957
X71465Y95115
T05
X308424Y79971
X331465Y79800
X331465Y69800
X331465Y59800
X331465Y49800
X308424Y49971
X331465Y89800
X331465Y99800
X331465Y109800
X331465Y119800
X331465Y129800
X331465Y154800
X331465Y164800
X331465Y174800
X331465Y184800
X331465Y194800
X331465Y204800
X331465Y214800
X331465Y224800
X331465Y234800
X361465Y234800
X361465Y224800
X361465Y214800
X361465Y204800
X361465Y194800
X361465Y184800
X361465Y174800
X361465Y164800
X361465Y154800
X361465Y129800
X361465Y119800
X361465Y109800
X361465Y99800
X361465Y89800
X361465Y79800
X361465Y69800
X361465Y59800
X361465Y49800
X419561Y53549
X419561Y45549
X419261Y150642
X419261Y158642
X305965Y154800
X305965Y184800
X306361Y260111
X331465Y259800
X331465Y269800
X331465Y279800
X331465Y289800
X331465Y299800
X331465Y309800
X331465Y319800
X331465Y329800
X331465Y339800
X361465Y339800
X361465Y329800
X361465Y319800
X361465Y309800
X361465Y299800
X361465Y289800
X361465Y279800
X361465Y269800
X361465Y259800
X306361Y290111
X419124Y264323
X419124Y256323
T06
X123965Y347700
X123965Y357500
X123965Y367300
T07
X101465Y209800
X101465Y199800
X101465Y189800
X101465Y179800
X61465Y179800
X61465Y189800
X61465Y199800
X61465Y209800
T08
X84654Y59800
X96465Y40902
X108670Y59800
X131465Y44800
X166780Y379800
X176623Y379800
X186465Y379800
X251780Y379800
X261623Y379800
X271465Y379800
X321780Y379800
X331623Y379800
X341465Y379800
X391780Y379800
X401623Y379800
X411465Y379800
T09
X106465Y114800
X106465Y104800
X106465Y94800
T10
X81465Y344052
X61780Y363737
X61780Y373579
X101150Y373579
X101150Y363737
T11
X37233Y304950
X37233Y100619
X458493Y41170
X458493Y364005
M30
